<svg width="170" height="50" viewBox="0 0 170 50" fill="none" xmlns="http://www.w3.org/2000/svg">
<g clip-path="url(#clip0_9_55)">
<path d="M89.5845 12.5627C89.5845 14.3647 88.0444 15.8156 86.1332 15.8156C84.2219 15.8156 82.6829 14.3647 82.6829 12.5627C82.6829 10.7607 84.1694 9.30976 86.1332 9.30976C88.0985 9.35976 89.5845 10.8112 89.5845 12.5627ZM75.3571 19.1196V19.9206C75.3571 19.9206 73.7121 17.9176 70.2082 17.9176C64.4225 17.9176 59.9095 22.072 59.9095 27.8274C59.9095 33.5333 64.3694 37.7372 70.2082 37.7372C73.7651 37.7372 75.3571 35.6852 75.3571 35.6852V36.5357C75.3571 36.9362 75.6764 37.2357 76.1006 37.2357H80.3999V18.4166H76.1006C75.6764 18.4181 75.3571 18.7691 75.3571 19.1196ZM75.3571 31.1808C74.5616 32.2823 72.9685 33.2333 71.0578 33.2333C67.6606 33.2333 65.0589 31.2313 65.0589 27.8274C65.0589 24.424 67.6606 22.422 71.0578 22.422C72.916 22.422 74.6147 23.423 75.3571 24.474V31.1808ZM83.5855 18.4181H88.6813V37.2372H83.5855V18.4181ZM159.71 17.9171C156.206 17.9171 154.56 19.92 154.56 19.92V9.35976H149.464V37.2372H153.765C154.189 37.2372 154.507 36.8867 154.507 36.5362V35.6857C154.507 35.6857 156.153 37.7377 159.656 37.7377C165.443 37.7377 169.955 33.5348 169.955 27.8289C169.955 22.123 165.443 17.9171 159.71 17.9171ZM158.86 33.1828C156.896 33.1828 155.357 32.2328 154.56 31.1308V24.424C155.357 23.423 157.055 22.372 158.86 22.372C162.258 22.372 164.859 24.374 164.859 27.7774C164.859 31.1808 162.258 33.1828 158.86 33.1828ZM146.811 26.0764V37.2872H141.714V26.6264C141.714 23.524 140.652 22.272 137.787 22.272C136.248 22.272 134.655 23.023 133.645 24.1245V37.2377H128.55V18.4186H132.583C133.008 18.4186 133.327 18.7691 133.327 19.1196V19.9206C134.813 18.4686 136.777 17.9176 138.741 17.9176C140.971 17.9176 142.829 18.5191 144.315 19.7201C146.12 21.1215 146.811 22.923 146.811 26.0764ZM116.179 17.9171C112.677 17.9171 111.031 19.92 111.031 19.92V9.35976H105.935V37.2372H110.234C110.659 37.2372 110.978 36.8867 110.978 36.5362V35.6857C110.978 35.6857 112.624 37.7377 116.126 37.7377C121.913 37.7377 126.425 33.5348 126.425 27.8289C126.478 22.1225 121.966 17.9171 116.179 17.9171ZM115.33 33.1828C113.366 33.1828 111.827 32.2328 111.031 31.1308V24.424C111.827 23.423 113.526 22.372 115.33 22.372C118.728 22.372 121.329 24.374 121.329 27.7774C121.329 31.1808 118.728 33.1828 115.33 33.1828ZM101.528 17.9171C103.067 17.9171 103.864 18.1681 103.864 18.1681V22.622C103.864 22.622 99.6171 21.2705 96.9633 24.124V37.2867H91.8664V18.4181H96.1668C96.5916 18.4181 96.9092 18.7686 96.9092 19.1191V19.92C97.8659 18.8686 99.9363 17.9171 101.528 17.9171ZM48.6031 35.5352C48.3379 34.9347 48.0722 34.2843 47.8071 33.7333C47.3818 32.8328 46.957 31.9813 46.5863 31.1808L46.5332 31.1308C42.8698 23.623 38.9423 16.0161 34.801 8.50929L34.6419 8.20828C34.2063 7.42953 33.7819 6.64532 33.3686 5.85584C32.8372 4.95435 32.3069 4.00437 31.4573 3.10289C29.7587 1.10093 27.3166 -0.00055005 24.7159 -0.00055005C22.0612 -0.00055005 19.6726 1.10093 17.9215 3.00239C17.125 3.90288 16.5406 4.85386 16.0102 5.75534C15.5959 6.54433 15.1715 7.32853 14.7369 8.10779L14.5773 8.40878C10.4896 15.9156 6.50853 23.523 2.84562 31.0303L2.79207 31.1298C2.42084 31.9318 1.99552 32.7823 1.57074 33.6823C1.30558 34.2333 1.04042 34.8337 0.775261 35.4842C0.0847867 37.3357 -0.127881 39.0877 0.138339 40.8901C0.722219 44.644 3.37593 47.796 7.03937 49.1985C8.41979 49.7494 9.85324 49.9994 11.3392 49.9994C11.764 49.9994 12.2943 49.9494 12.7196 49.8989C14.4718 49.6989 16.2765 49.1489 18.0286 48.198C20.2051 47.0465 22.2754 45.3955 24.6109 42.9931C26.9465 45.3955 29.0699 47.0465 31.1933 48.198C32.946 49.1489 34.7501 49.6989 36.5017 49.8989C36.9265 49.9499 37.4579 49.9994 37.8827 49.9994C39.3692 49.9994 40.8551 49.7494 42.182 49.1985C45.8985 47.796 48.4991 44.594 49.0835 40.8901C49.5051 39.1387 49.293 37.3877 48.6031 35.5352ZM24.6624 38.1377C21.7955 34.7342 19.9372 31.5313 19.3009 28.8294C19.0357 27.6779 18.9821 26.6769 19.1418 25.7759C19.2473 24.9749 19.5666 24.274 19.9913 23.6735C21 22.323 22.6986 21.4715 24.6629 21.4715C26.6277 21.4715 28.3794 22.2725 29.335 23.6735C29.7598 24.274 30.078 24.9754 30.1851 25.7759C30.3437 26.6774 30.2907 27.7279 30.0255 28.8294C29.3865 31.4813 27.5282 34.6847 24.6624 38.1377ZM45.8422 40.4901C45.471 43.0926 43.6128 45.3455 41.0121 46.3465C39.7383 46.8465 38.3573 46.997 36.978 46.8465C35.6511 46.696 34.3232 46.2955 32.9438 45.5455C31.0326 44.5435 29.1218 42.9931 26.8918 40.6901C30.3951 36.6367 32.5185 32.9323 33.3151 29.6299C33.6868 28.0779 33.7404 26.6769 33.5802 25.3749C33.3686 24.124 32.8903 22.9725 32.1473 21.9715C30.5007 19.7185 27.7398 18.4181 24.6619 18.4181C21.5839 18.4181 18.823 19.7695 17.1775 21.9715C16.4345 22.9725 15.9561 24.124 15.744 25.3749C15.5319 26.6769 15.5844 28.1279 16.0092 29.6299C16.8052 32.9323 18.9816 36.6862 22.4319 40.7401C20.2554 43.0426 18.2911 44.5946 16.3799 45.5955C14.9995 46.3465 13.6731 46.747 12.3463 46.8965C10.9134 47.047 9.53241 46.8465 8.31161 46.3965C5.71093 45.3955 3.8527 43.1426 3.48147 40.5401C3.32238 39.2892 3.42791 38.0382 3.95929 36.6367C4.11786 36.1357 4.38407 35.6357 4.64923 35.0352C5.02099 34.2343 5.44471 33.3828 5.87003 32.5323L5.92359 32.4328C9.58597 24.9749 13.514 17.3676 17.6017 9.96075L17.7608 9.65976C18.1861 8.90977 18.6109 8.10879 19.0352 7.3578C19.46 6.55682 19.9372 5.80583 20.5217 5.15485C21.6364 3.95487 23.1223 3.30338 24.7684 3.30338C26.4146 3.30338 27.9005 3.95487 29.0152 5.15485C29.5997 5.80733 30.0769 6.55832 30.5017 7.3578C30.927 8.10879 31.3518 8.90977 31.7755 9.65976L31.9352 9.96075C35.9605 17.3984 39.8364 24.9071 43.5608 32.4828V32.5328C43.9861 33.3348 44.3573 34.2348 44.7821 35.0367C45.0473 35.6362 45.313 36.1362 45.4721 36.6372C45.8958 37.9372 46.0549 39.1892 45.8422 40.4901Z" fill="#ACAAB4"/>
</g>
<defs>
<clipPath id="clip0_9_55">
<rect width="169.751" height="49.9333" fill="white" transform="scale(1.00133)"/>
</clipPath>
</defs>
</svg>
