<svg width="162" height="47" viewBox="0 0 162 47" fill="none" xmlns="http://www.w3.org/2000/svg">
<g clip-path="url(#clip0_9_59)">
<path fill-rule="evenodd" clip-rule="evenodd" d="M100.496 36.1207C91.1175 42.6882 77.4759 46.1872 65.7101 46.1872C49.2266 46.1872 34.4483 40.4272 23.194 30.8453C22.3414 30.0916 23.0804 29.0689 24.1603 29.661C36.2672 36.3361 51.216 40.3196 66.6764 40.3196C77.078 40.3196 88.5597 38.274 99.1319 34.0213C100.723 33.4292 102.031 35.0441 100.496 36.1207Z" fill="#ACAAB4"/>
<path fill-rule="evenodd" clip-rule="evenodd" d="M104.418 31.8681C103.224 30.4146 96.4604 31.1683 93.4479 31.5451C92.5385 31.6528 92.3679 30.8991 93.2205 30.3608C98.6203 26.7541 107.43 27.8307 108.454 29.015C109.477 30.1993 108.169 38.597 103.111 42.5805C102.315 43.1726 101.576 42.8497 101.917 42.0422C103.054 39.3506 105.612 33.3753 104.418 31.8681Z" fill="#ACAAB4"/>
<path fill-rule="evenodd" clip-rule="evenodd" d="M93.6184 5.06013V1.5611C93.6184 1.02279 94.0163 0.699799 94.5278 0.699799H111.011C111.523 0.699799 111.978 1.07662 111.978 1.5611V4.52182C111.978 5.0063 111.523 5.65228 110.727 6.7289L102.201 18.2488C105.384 18.1949 108.738 18.6256 111.58 20.1329C112.205 20.4559 112.375 20.9942 112.432 21.4787V25.193C112.432 25.7313 111.864 26.3235 111.239 26.0005C106.18 23.4704 99.4161 23.2013 93.8458 26.0543C93.2774 26.3235 92.6521 25.7851 92.6521 25.2468V21.694C92.6521 21.1557 92.6521 20.1867 93.2774 19.3254L103.167 5.92143H94.5847C94.0731 5.92143 93.6184 5.54461 93.6184 5.06013ZM33.5388 26.7541H28.537C28.0822 26.7003 27.6844 26.3773 27.6275 25.9466V1.61494C27.6275 1.13046 28.0822 0.753634 28.5938 0.753634H33.2546C33.7662 0.753634 34.1072 1.13045 34.1641 1.5611V4.73714H34.2778C35.4714 1.66876 37.8018 0.215322 40.8712 0.215322C43.9973 0.215322 45.9867 1.66876 47.3509 4.73714C48.5445 1.66876 51.3297 0.215322 54.2853 0.215322C56.3884 0.215322 58.662 1.02279 60.083 2.90688C61.6745 4.95247 61.3335 7.91319 61.3335 10.5509V25.9466C61.3335 26.4311 60.8787 26.8079 60.3672 26.8079H55.4221C54.9106 26.7541 54.5127 26.3773 54.5127 25.9466V13.0271C54.5127 12.0044 54.6264 9.42045 54.399 8.45149C54.0011 6.83655 52.9212 6.35208 51.4433 6.35208C50.2497 6.35208 48.9424 7.10572 48.4308 8.34384C47.9193 9.58196 47.9761 11.6275 47.9761 13.0271V25.9466C47.9761 26.4311 47.5214 26.8079 47.0099 26.8079H42.008C41.4964 26.7541 41.0985 26.3773 41.0985 25.9466V13.0271C41.0985 10.3356 41.5532 6.29824 38.0292 6.29824C34.4483 6.29824 34.562 10.1741 34.562 13.0271V25.9466C34.5051 26.3773 34.1072 26.7541 33.5388 26.7541ZM126.188 0.215322C133.634 0.215322 137.669 6.24442 137.669 13.9423C137.669 21.371 133.236 27.2924 126.188 27.2924C118.912 27.2924 114.933 21.2633 114.933 13.727C114.876 6.13676 118.912 0.215322 126.188 0.215322ZM126.188 5.22162C122.493 5.22162 122.266 10.0126 122.266 12.9733C122.266 15.934 122.209 22.2861 126.131 22.2861C129.996 22.2861 130.223 17.1722 130.223 14.05C130.223 12.0044 130.109 9.52813 129.484 7.5902C128.916 5.86761 127.779 5.22162 126.188 5.22162ZM147.275 26.7541H142.273C141.762 26.7003 141.364 26.3235 141.364 25.8928V1.50727C141.421 1.07662 141.818 0.699799 142.33 0.699799H146.991C147.446 0.699799 147.787 1.0228 147.9 1.39961V5.11397H148.014C149.435 1.77643 151.368 0.215322 154.835 0.215322C157.051 0.215322 159.268 0.968952 160.689 3.06837C161.997 5.00629 161.997 8.29 161.997 10.6586V26.0005C161.94 26.4311 161.542 26.7541 161.03 26.7541H156.028C155.574 26.7003 155.176 26.3773 155.119 26.0005V12.758C155.119 10.0664 155.46 6.19059 151.993 6.19059C150.799 6.19059 149.662 6.94423 149.094 8.12852C148.412 9.63579 148.298 11.0892 148.298 12.758V25.8928C148.241 26.3773 147.787 26.7541 147.275 26.7541ZM80.4884 15.1266C80.4884 16.9568 80.5453 18.5179 79.579 20.1867C78.7832 21.5325 77.5328 22.34 76.1118 22.34C74.1792 22.34 73.0424 20.9403 73.0424 18.8948C73.0424 14.8574 76.8507 14.1038 80.4884 14.1038V15.1266ZM85.5472 26.7003C85.2061 26.9694 84.7514 27.0233 84.3535 26.8079C82.7052 25.516 82.3641 24.87 81.4547 23.6319C78.7264 26.2696 76.737 27.0771 73.2129 27.0771C69.0068 27.0771 65.7101 24.6009 65.7101 19.7022C65.7101 15.8264 67.9269 13.2425 71.053 11.9505C73.7813 10.8201 77.5896 10.6048 80.4884 10.2818V9.68962C80.4884 8.55916 80.6021 7.21339 79.8632 6.24442C79.238 5.38312 78.1012 5.0063 77.078 5.0063C75.1455 5.0063 73.4403 5.92144 73.0424 7.85936C72.9287 8.29001 72.6445 8.72065 72.1898 8.72065L67.3585 8.23617C66.9606 8.12851 66.5059 7.85936 66.6196 7.26721C67.7563 1.66877 73.0424 0 77.817 0C80.2611 0 83.4441 0.59214 85.3767 2.36857C87.8208 4.52182 87.5934 7.42871 87.5934 10.5509V17.9258C87.5934 20.1329 88.5597 21.1018 89.4691 22.34C89.8101 22.7706 89.867 23.3089 89.4691 23.5781C88.3891 24.3855 86.5703 25.8928 85.5472 26.7003ZM14.8386 15.1266C14.8386 16.9568 14.8954 18.5179 13.9292 20.1867C13.1334 21.5325 11.8829 22.34 10.4619 22.34C8.52938 22.34 7.39259 20.9403 7.39259 18.8948C7.39259 14.8574 11.2008 14.1038 14.8386 14.1038V15.1266ZM19.8405 26.7003C19.4994 26.9694 19.0447 27.0233 18.6468 26.8079C16.9985 25.516 16.6575 24.87 15.748 23.6319C13.0197 26.2696 11.0303 27.0771 7.50626 27.0771C3.30013 27.0771 0.003425 24.6009 0.003425 19.7022C0.003425 15.8264 2.22017 13.2425 5.34635 11.9505C8.07466 10.8201 11.8829 10.6048 14.7817 10.2818V9.68962C14.7817 8.55916 14.8954 7.21339 14.1565 6.24442C13.5313 5.38312 12.3945 5.0063 11.3714 5.0063C9.43881 5.0063 7.73362 5.92144 7.33574 7.85936C7.22206 8.29001 6.93786 8.72065 6.48315 8.72065L1.65177 8.23617C1.25389 8.12851 0.799184 7.85936 0.912864 7.26721C2.04966 1.66877 7.33575 0 12.1103 0C14.5544 0 17.7374 0.59214 19.67 2.36857C22.1141 4.52182 21.8867 7.42871 21.8867 10.5509V17.9258C21.8867 20.1329 22.853 21.1018 23.7624 22.34C24.1035 22.7706 24.1603 23.3089 23.7624 23.5781C22.6825 24.3855 20.8636 25.8928 19.8405 26.7003Z" fill="#ACAAB4"/>
</g>
<defs>
<clipPath id="clip0_9_59">
<rect width="161.667" height="46.0923" fill="white" transform="matrix(-1.00206 0 0 -1.00206 162 46.1872)"/>
</clipPath>
</defs>
</svg>
