<svg width="204" height="39" viewBox="0 0 204 39" fill="none" xmlns="http://www.w3.org/2000/svg">
<path d="M105.024 18.7038C103.339 18.7038 102.125 19.2306 100.894 19.7673V31.9123C102.073 32.0195 102.749 32.0195 103.868 32.0195C107.911 32.0195 108.465 30.2535 108.465 27.7877V21.9872C108.465 20.1663 107.832 18.7038 105.024 18.7038ZM78.1727 18.0409C75.3675 18.0409 74.7274 19.5098 74.7274 21.3289V22.351H81.6143V21.3289C81.6143 19.5098 80.9742 18.0409 78.1727 18.0409ZM26.157 30.6821C26.157 32.1212 26.869 32.8687 28.4401 32.8687C30.1255 32.8687 31.1235 32.3446 32.3538 31.806V28.9251H28.6686C26.9237 28.9251 26.157 29.2349 26.157 30.6821ZM131.143 18.7038C128.333 18.7038 127.36 20.1663 127.36 21.9872V28.6325C127.36 30.4579 128.333 31.9249 131.143 31.9249C133.945 31.9249 134.926 30.4579 134.926 28.6325V21.9872C134.925 20.1663 133.944 18.7038 131.143 18.7038ZM12.3869 38.1334H4.12708V19.0649H0V12.4944H4.12802V8.54813C4.12802 3.18709 6.45735 0 13.078 0H18.5903V6.5723H15.1449C12.5672 6.5723 12.3973 7.49087 12.3973 9.20464L12.3869 12.4935H18.628L17.8982 19.064H12.3869V38.1334ZM40.6155 38.1829H33.7314L33.4339 36.5223C30.2907 38.1829 27.4855 38.4522 25.6349 38.4522C20.5863 38.4522 17.8991 35.2354 17.8991 30.7866C17.8991 25.5381 21.0348 23.665 26.6442 23.665H32.3538V22.5302C32.3538 19.8511 32.0318 19.0649 27.7121 19.0649H20.6495L21.3397 12.4944H29.0595C38.5373 12.4944 40.6155 15.3501 40.6155 22.5834V38.1829ZM64.0249 19.5467C59.7411 18.8461 58.5108 18.6921 56.4496 18.6921C52.7475 18.6921 51.6286 19.471 51.6286 22.4699V28.1425C51.6286 31.1414 52.7475 31.924 56.4496 31.924C58.5108 31.924 59.7411 31.7673 64.0249 31.064V37.4733C60.2727 38.2757 57.8282 38.4864 55.7623 38.4864C46.8944 38.4864 43.3697 34.0385 43.3697 27.613V23.0102C43.3697 16.5793 46.8944 12.1234 55.7623 12.1234C57.8282 12.1234 60.2727 12.335 64.0249 13.141V19.5467ZM89.8732 27.613H74.7264V28.1425C74.7264 31.1414 75.8462 31.924 79.5475 31.924C82.8748 31.924 84.9058 31.7673 89.1821 31.064V37.4733C85.0578 38.2757 82.9088 38.4864 78.863 38.4864C69.9941 38.4864 66.4676 34.0385 66.4676 27.613V22.3501C66.4676 16.7279 69.0839 12.1234 78.1718 12.1234C87.2597 12.1234 89.8732 16.6748 89.8732 22.3501V27.613ZM116.723 27.7346C116.723 33.9449 114.862 38.4747 103.589 38.4747C99.5172 38.4747 97.1293 38.1334 92.6359 37.4742V1.97403L100.893 0.660113V13.078C102.677 12.4458 104.987 12.1243 107.089 12.1243C115.347 12.1243 116.722 15.6554 116.722 21.3298V27.7346H116.723ZM143.192 27.8697C143.192 33.2271 140.873 38.4234 131.17 38.4234C121.463 38.4234 119.101 33.2271 119.101 27.8697V22.6968C119.101 17.3367 121.463 12.1396 131.17 12.1396C140.873 12.1396 143.192 17.3367 143.192 22.6968V27.8697ZM169.643 27.8697C169.643 33.2271 167.321 38.4234 157.62 38.4234C147.913 38.4234 145.55 33.2271 145.55 27.8697V22.6968C145.55 17.3367 147.913 12.1396 157.62 12.1396C167.321 12.1396 169.643 17.3367 169.643 22.6968V27.8697ZM196.787 38.1334H187.837L180.268 26.0812V38.1334H172.008V1.97313L180.268 0.659211V23.9378L187.837 12.4944H196.787L188.524 24.9825L196.787 38.1334ZM157.592 18.7038C154.787 18.7038 153.813 20.1663 153.813 21.9872V28.6325C153.813 30.4579 154.787 31.9249 157.592 31.9249C160.393 31.9249 161.385 30.4579 161.385 28.6325V21.9872C161.385 20.1663 160.393 18.7038 157.592 18.7038ZM201.502 33.636C202.892 33.636 204 34.7175 204 36.0684C204 37.4399 202.891 38.5098 201.491 38.5098C200.098 38.5098 198.967 37.4399 198.967 36.0684C198.967 34.7175 200.098 33.636 201.491 33.636H201.502ZM201.491 34.0142C200.37 34.0142 199.454 34.9337 199.454 36.0684C199.454 37.2238 200.371 38.1316 201.502 38.1316C202.633 38.1424 203.536 37.2238 203.536 36.0792C203.536 34.9346 202.633 34.0142 201.502 34.0142H201.491ZM201.016 37.4841H200.563V34.7698C200.801 34.7383 201.028 34.7067 201.368 34.7067C201.798 34.7067 202.079 34.7932 202.252 34.9112C202.419 35.0309 202.509 35.2138 202.509 35.4722C202.509 35.8306 202.262 36.0459 201.957 36.1332V36.1539C202.205 36.1981 202.374 36.4124 202.432 36.8113C202.498 37.2337 202.567 37.3949 202.611 37.4832H202.136C202.069 37.3949 202 37.1473 201.943 36.7897C201.877 36.4448 201.694 36.3151 201.332 36.3151H201.017V37.4841H201.016ZM201.016 35.9819H201.345C201.717 35.9819 202.033 35.8513 202.033 35.5154C202.033 35.2777 201.854 35.0408 201.345 35.0408C201.197 35.0408 201.094 35.0517 201.016 35.0616V35.9819Z" fill="#ACAAB4"/>
</svg>
