<svg width="178" height="55" viewBox="0 0 178 55" fill="none" xmlns="http://www.w3.org/2000/svg">
<g clip-path="url(#clip0_9_46)">
<path d="M21.9213 0.006012H23.5042C28.9995 0.119057 34.4052 2.21039 38.2878 5.91262C36.8542 7.29743 35.3908 8.62571 33.9871 10.0105C31.8069 8.14526 29.1787 6.70394 26.3116 6.19523C22.0706 5.3474 17.5012 6.11045 13.9472 8.39962C10.0646 10.8018 7.43642 14.8715 6.86897 19.2237C6.24179 23.5194 7.52602 28.0412 10.4827 31.376C13.32 34.6261 17.6505 36.6609 22.1304 36.8022C26.3116 37.0283 30.672 35.8131 33.7183 33.0435C36.1076 31.0934 37.2126 28.126 37.571 25.2433C32.6133 25.2433 27.6555 25.2716 22.6978 25.2433V19.4215H43.574C44.6492 25.6673 43.0961 32.7043 38.0787 37.1696C34.7337 40.3349 30.1045 42.2001 25.3857 42.5675C20.8163 42.9914 16.0975 42.1719 12.0357 40.0805C7.16763 37.6218 3.28508 33.4674 1.37367 28.5782C-0.418279 24.0846 -0.448145 18.9976 1.22434 14.4758C2.74749 10.3496 5.67434 6.70394 9.43743 4.16042C13.0512 1.64517 17.4415 0.260364 21.9213 0.006012Z" fill="#ACAAB4"/>
<path d="M141.683 1.47447H148.074V41.8316C145.954 41.8316 143.804 41.8599 141.683 41.8033C141.713 28.3792 141.683 14.9268 141.683 1.47447Z" fill="#ACAAB4"/>
<path d="M57.7903 15.4638C61.7325 14.7573 66.0034 15.5486 69.2587 17.7812C72.2154 19.7595 74.2762 22.8683 74.9034 26.2596C75.7097 30.1879 74.6943 34.4837 72.0064 37.5924C69.1094 41.0685 64.3607 42.9338 59.7315 42.6512C55.4906 42.4251 51.3691 40.4185 48.8604 37.1402C46.0231 33.5228 45.3362 28.5488 46.8893 24.3096C48.4423 19.7595 52.8325 16.2834 57.7903 15.4638ZM58.6862 20.8335C57.0735 21.2291 55.5802 22.1052 54.505 23.3487C51.608 26.627 51.7872 31.9684 54.9829 35.0206C56.8047 36.7728 59.5523 37.5924 62.0909 37.112C64.4503 36.7163 66.5111 35.2184 67.646 33.2402C69.6171 29.8771 69.0497 25.2422 66.0332 22.6139C64.0919 20.9182 61.2547 20.2117 58.6862 20.8335Z" fill="#ACAAB4"/>
<path d="M89.448 15.4638C93.9577 14.6442 98.8856 15.8312 102.26 18.8269C107.756 23.49 108.353 32.2228 103.664 37.5924C100.827 40.9838 96.2275 42.849 91.6879 42.6512C87.3574 42.5381 83.0866 40.5033 80.5181 37.1402C77.6212 33.438 76.994 28.351 78.6366 24.027C80.2792 19.6182 84.5799 16.2551 89.448 15.4638ZM90.344 20.8335C88.7312 21.2291 87.2379 22.1052 86.1628 23.3204C83.2956 26.5422 83.4151 31.7988 86.4913 34.8793C88.3131 36.7163 91.1503 37.6207 93.7785 37.112C96.1081 36.688 98.1987 35.2184 99.3336 33.2402C101.275 29.8488 100.707 25.214 97.6611 22.5857C95.7198 20.89 92.8825 20.2117 90.344 20.8335Z" fill="#ACAAB4"/>
<path d="M116.297 17.103C119.732 15.0682 124.301 14.5029 128.005 16.2551C129.169 16.7356 130.125 17.5552 131.051 18.3747C131.081 17.6117 131.051 16.8204 131.081 16.0291C133.082 16.0573 135.083 16.0291 137.114 16.0573V40.9838C137.084 44.7425 136.068 48.7274 133.201 51.4687C130.065 54.4926 125.257 55.4253 120.927 54.8035C116.297 54.1535 112.265 50.96 110.474 46.9186C112.265 46.0991 114.147 45.449 115.999 44.686C117.044 47.0034 119.164 48.9817 121.823 49.4339C124.481 49.8861 127.557 49.2643 129.289 47.173C131.141 45.0251 131.141 42.086 131.051 39.4577C129.677 40.7294 128.094 41.8599 126.183 42.2838C122.032 43.386 117.462 42.0294 114.266 39.3729C111.041 36.7163 109.13 32.6184 109.309 28.5488C109.398 23.9422 112.146 19.5052 116.297 17.103ZM122.48 20.7204C120.658 21.003 118.955 21.9639 117.791 23.2922C114.983 26.4575 114.983 31.5162 117.82 34.625C119.433 36.462 122.032 37.4794 124.54 37.225C126.9 36.9989 129.08 35.5859 130.245 33.6358C132.216 30.3293 131.887 25.8357 129.229 22.9531C127.587 21.1726 124.958 20.2965 122.48 20.7204Z" fill="#ACAAB4"/>
<path d="M155.75 18.5443C159.334 15.379 164.859 14.3051 169.458 15.9725C173.819 17.5269 176.596 21.4552 178 25.4966C171.519 28.0401 165.068 30.5553 158.587 33.0989C159.483 34.7097 160.857 36.1793 162.709 36.7728C165.307 37.6489 168.413 37.3381 170.593 35.6989C171.459 35.0771 172.146 34.2576 172.803 33.4663C174.446 34.5119 176.089 35.5293 177.731 36.575C175.402 39.8816 171.489 42.199 167.278 42.5664C162.619 43.1034 157.661 41.4077 154.645 37.9598C149.687 32.5336 150.165 23.4335 155.75 18.5443ZM158.946 23.7726C157.93 25.1574 157.512 26.8531 157.542 28.5205C161.873 26.8248 166.203 25.1292 170.534 23.4052C169.817 21.8226 168.085 20.8617 166.323 20.6074C163.485 20.1269 160.529 21.5682 158.946 23.7726Z" fill="#ACAAB4"/>
</g>
<defs>
<clipPath id="clip0_9_46">
<rect width="177.095" height="54.6985" fill="white" transform="scale(1.00511)"/>
</clipPath>
</defs>
</svg>
