<svg width="160" height="41" viewBox="0 0 160 41" fill="none" xmlns="http://www.w3.org/2000/svg">
<g clip-path="url(#clip0_9_57)">
<path d="M151.441 19.4753L160 40.8695C157.478 40.5294 154.956 40.1033 152.389 39.7195L147.568 27.8983L142.614 38.7437C140.182 38.3598 137.793 38.232 135.362 37.934L144.055 19.2209L136.17 0.0409042H143.468L147.882 10.7571L152.613 0.0409042H159.999L151.441 19.4753ZM130.407 0.0409042H123.785V37.1269C125.948 37.2549 128.199 37.3392 130.407 37.5937V0.0409042ZM118.064 36.701C112.029 36.3185 105.992 35.9797 99.8214 35.8504V0.0410685H106.578V29.8117C110.452 29.8962 114.325 30.1929 118.064 30.363V36.701ZM92.6127 14.5445V20.9233H83.3789V35.4256H76.7137V0.0409042H95.6326V6.41967H83.3803V14.5447H92.6141L92.6127 14.5445ZM65.3608 6.41967V35.7659C63.1079 35.7659 60.8118 35.7659 58.6034 35.8504V6.41967H51.6212V0.0409042H72.3862V6.41967H65.3608ZM44.3246 21.2623C41.3523 21.2623 37.838 21.2623 35.3155 21.3916V30.8746C39.2795 30.6188 43.2434 30.3221 47.2519 30.1942V36.3185L28.5595 37.723V0.0409042H47.2507V6.41967H35.3153V15.0113C37.9287 15.0113 41.9373 14.8835 44.3243 14.8835V21.2636L44.3246 21.2623ZM6.89019 17.6897V39.9753C4.45992 40.2311 2.29627 40.5292 0 40.8695V0.0409042H6.4419L15.2248 23.2208V0.0409042H21.9822V38.232C19.5951 38.6158 17.162 38.7437 14.5948 39.0826L6.89019 17.6897Z" fill="#ACAAB4"/>
</g>
<defs>
<clipPath id="clip0_9_57">
<rect width="159.242" height="40.7149" fill="white" transform="scale(1.00476)"/>
</clipPath>
</defs>
</svg>
